<svg height="512pt" viewBox="0 0 512 512.00003" width="512pt" xmlns="http://www.w3.org/2000/svg"><path d="m219.367188 338.46875v9.144531h18.285156c15.140625-.015625 27.414062-12.285156 27.425781-27.429687v-9.234375h-18.285156c-15.160157.054687-27.421875 12.359375-27.425781 27.519531zm0 0"/><path d="m261.238281 292.664062c-7.230469-16.695312-23.679687-27.503906-41.871093-27.519531h-18.289063c-25.242187.007813-45.703125 20.46875-45.710937 45.710938v9.328125c.011718 15.144531 12.285156 27.414062 27.425781 27.429687h18.285156v-9.144531c0-25.261719 20.453125-45.753906 45.714844-45.804688zm0 0"/><path d="m176.757812 474.058594c.183594-.550782.457032-1.191406.640626-1.828125-7.855469-15.003907-23.386719-24.40625-40.320313-24.414063h-9.140625c-25.261719.050782-45.714844 20.542969-45.714844 45.804688v9.234375c.015625 5.046875 4.097656 9.128906 9.144532 9.144531h83.929687c-1.0625-2.933594-1.621094-6.023438-1.644531-9.144531v-9.234375c-.027344-6.644532 1.023437-13.253906 3.105468-19.5625zm0 0"/><path d="m9.078125 413.621094c11.472656 9.628906 28.457031 8.667968 38.765625-2.191406 1.832031-2.105469 3.566406-4.207032 5.304688-6.402344-12.53125-14.53125-23.445313-30.378906-32.550782-47.265625-4.203125 5.851562-8.773437 11.519531-13.621094 17.09375-10.066406 11.308593-9.128906 28.617187 2.101563 38.765625zm0 0"/><path d="m356.507812 512c5.042969-.015625 9.128907-4.097656 9.144532-9.144531v-38.488281c-19.382813 10.199218-40.003906 17.851562-61.351563 22.765624-.652343.179688-1.328125.273438-2.007812.273438-4.277344.035156-7.984375-2.949219-8.871094-7.132812-.183594-.363282 0-.820313-.089844-1.277344-.09375-.183594-.183593-.277344-.273437-.457032-7.867188-18.59375-26.078125-30.6875-46.265625-30.722656h-9.140625c-18.160156.042969-34.582032 10.800782-41.875 27.429688-.550782 1.371094-1.097656 2.742187-1.554688 4.296875-1.523437 4.539062-2.292968 9.292969-2.285156 14.078125v9.234375c.015625 5.046875 4.097656 9.128906 9.140625 9.144531zm0 0"/><path d="m437.058594 71.863281c-47.085938-47.632812-111.085938-71.863281-190.265625-71.863281-103.675781-.0507812-195.414063 67.128906-226.664063 165.980469-31.25 98.855469 5.207032 206.558593 90.070313 266.109375 5.761719-1.6875 11.734375-2.546875 17.738281-2.558594h9.140625c19.652344.03125 38.195313 9.101562 50.289063 24.59375 12.101562-15.476562 30.636718-24.542969 50.285156-24.59375h9.140625c25.824219.152344 49.398437 14.726562 61.074219 37.761719 21.871093-5.738281 42.804687-14.574219 62.171874-26.242188 2.558594-1.644531 5.121094-3.382812 7.679688-5.121093-5.75-15.703126-2.414062-33.296876 8.6875-45.804688 30.765625-34.402344 48.777344-78.332031 51.015625-124.433594.363281-4.996094 4.59375-8.824218 9.601563-8.6875 5.042968.269532 8.921874 4.558594 8.683593 9.601563-2.433593 50.277343-22.09375 98.183593-55.679687 135.679687-9.992188 11.347656-9.015625 28.621094 2.195312 38.765625 11.472656 9.628907 28.453125 8.667969 38.765625-2.195312 44.96875-50.410157 70.171875-115.398438 70.949219-182.945313-1.179688-68.53125-27.878906-134.160156-74.878906-184.046875zm-356.847656 45.898438c6.738281-20.707031 23.097656-36.859375 43.886718-43.339844 10.628906-3.3125 21.980469-3.535156 32.730469-.640625 5.191406 1.289062 10.195313 3.222656 14.902344 5.761719 4.5 2.59375 8.753906 5.59375 12.710937 8.960937.707032.554688 1.164063 1.367188 1.265625 2.261719.101563.894531-.15625 1.789063-.71875 2.492187-.78125.988282-2.058593 1.449219-3.292969 1.1875l-.546874-.089843c-4.847657-.914063-9.234376-2.5625-13.714844-3.476563-4.339844-.960937-8.738282-1.632812-13.164063-2.011718-8.433593-.84375-16.949219-.007813-25.054687 2.46875-16.851563 6.242187-32.183594 16-44.980469 28.617187l-.183594.183594c-.972656.820312-2.414062.738281-3.292969-.183594-.523437-.597656-.730468-1.414063-.546874-2.191406zm4.664062 71.585937c-3.5625-3.589844-3.550781-9.378906.023438-12.957031 3.578124-3.574219 9.367187-3.585937 12.957031-.023437 10.789062 9.726562 24.703125 15.269531 39.222656 15.632812 14.542969-.265625 28.488281-5.824219 39.222656-15.632812 3.589844-3.5625 9.382813-3.550782 12.957031.023437 3.574219 3.578125 3.585938 9.367187.027344 12.957031-14.265625 13.113282-32.832031 20.5625-52.207031 20.9375-19.371094-.375-37.9375-7.824218-52.203125-20.9375zm198.492188 130.835938c-.011719 25.242187-20.472657 45.703125-45.714844 45.714844h-54.859375c-25.242188-.011719-45.703125-20.472657-45.714844-45.714844v-9.328125c.039063-35.328125 28.671875-63.960938 64-64h18.289063c35.328124.039062 63.960937 28.671875 64 64zm52.203124-130.835938c-14.265624 13.113282-32.832031 20.5625-52.203124 20.9375-19.375-.375-37.941407-7.824218-52.207032-20.9375-3.5625-3.589844-3.550781-9.378906.027344-12.957031 3.574219-3.574219 9.367188-3.585937 12.953125-.023437 10.789063 9.726562 24.703125 15.269531 39.226563 15.632812 14.539062-.265625 28.484374-5.824219 39.222656-15.632812 3.585937-3.5625 9.378906-3.550782 12.953125.023437 3.578125 3.578125 3.589843 9.367187.027343 12.957031zm3.019532-68.753906c-.761719.261719-1.605469.089844-2.195313-.457031l-.183593-.183594c-12.796876-12.617187-28.128907-22.375-44.984376-28.617187-8.101562-2.476563-16.617187-3.3125-25.050781-2.46875-4.425781.378906-8.824219 1.050781-13.164062 2.011718-4.480469.914063-8.871094 2.5625-13.714844 3.476563l-.546875.089843c-1.542969.347657-3.113281-.429687-3.773438-1.863281-.664062-1.433593-.234374-3.132812 1.027344-4.078125 3.957032-3.367187 8.210938-6.367187 12.710938-8.960937 4.707031-2.539063 9.710937-4.472657 14.902344-5.761719 10.75-2.894531 22.101562-2.671875 32.730468.640625 20.789063 6.480469 37.148438 22.632813 43.886719 43.339844.300781 1.230469-.425781 2.480469-1.644531 2.832031zm0 0"/></svg>